<svg version="1.1" xmlns="http://www.w3.org/2000/svg" xmlns:xlink="http://www.w3.org/1999/xlink" width="722.748" height="515.17034" viewBox="0,0,722.748,515.17034"><g transform="translate(123.62625,73.54988)"><g data-paper-data="{&quot;isPaintingLayer&quot;:true}" fill-rule="nonzero" stroke-linejoin="miter" stroke-miterlimit="10" stroke-dasharray="" stroke-dashoffset="0" style="mix-blend-mode: normal"><path d="M-122.37625,440.37046v-512.67034h720.248v512.67034z" fill="#00ad30" stroke="#00ad30" stroke-width="2.5" stroke-linecap="butt"/><g><path d="M239.00242,231.77322c-3.15852,3.47572 -6.63426,0.3172 -6.63426,0.3172l-2.89961,-2.6476c-2.85009,-2.27953 -5.66411,-4.60496 -8.4379,-6.97676c-20.0237,-26.64973 -15.63247,-64.10229 -21.9276,-94.87809c0,0 -0.9214,-4.60521 3.68381,-5.52662c4.60521,-0.92141 5.52662,3.6838 5.52662,3.6838c5.56838,28.36959 1.18507,65.74847 19.54994,90.27569c2.46682,2.05742 4.96256,4.08022 7.47142,6.08615l3.35038,3.03199c0,0 3.47572,3.15854 0.3172,6.63426z" fill="#ffffff" stroke="none" stroke-width="0.5" stroke-linecap="butt"/><path d="M258.45791,125.09732c-0.46816,-0.01386 -4.65407,-0.26183 -4.65407,-4.69568c0,-4.69649 4.69649,-4.69648 4.69649,-4.69648l3.34574,0.55215c7.81642,4.16702 13.7285,8.09996 19.53416,14.97077c6.66565,22.60463 -5.66251,43.90399 -13.35582,64.62197c-4.53151,12.20326 -6.72244,25.36005 -12.75485,36.92314c0,0 -2.18807,4.15563 -6.34372,1.96758c-4.15564,-2.18805 -1.96758,-6.34369 -1.96758,-6.34369c5.89434,-11.07509 7.87543,-24.02193 12.24534,-35.77519c6.4049,-17.22655 19.06889,-37.85663 13.91712,-56.92067c-4.36489,-4.82008 -9.10897,-7.62009 -14.66281,-10.60388z" fill="#ffffff" stroke="none" stroke-width="0.5" stroke-linecap="butt"/><path d="M240.51596,212.19741c-4.69649,0 -4.69648,-4.69648 -4.69648,-4.69648v-3.12377c0,-13.61241 0.84959,-26.42575 3.32924,-39.74031c-5.90053,-4.04473 -10.7316,-11.30807 -12.29238,-17.67093c0,0 -1.08821,-4.56867 3.48046,-5.65688c4.56867,-1.08821 5.65688,3.48046 5.65688,3.48046c0.99784,4.34934 10.4197,21.23072 16.05455,10.42791c1.53156,-2.93623 0.04781,-9.79071 -0.29079,-12.79657l-1.20801,-3.29282c0,0 -1.48571,-4.4553 2.96961,-5.94099c4.45531,-1.48568 5.941,2.96961 5.941,2.96961l1.63287,5.22652c0.55649,5.06798 2.04757,13.85603 -0.85899,18.441c-3.62049,5.71115 -7.86925,7.96735 -12.11136,7.95683c-2.17806,12.24329 -2.91011,24.03678 -2.91011,36.59618v3.12377c0,0 0,4.69648 -4.69649,4.69648z" fill="#ffffff" stroke="none" stroke-width="0.5" stroke-linecap="butt"/><g fill="none" stroke="#ffffff" stroke-width="2.5" stroke-linecap="round"><path d="M186.90064,115.9809c0,0 13.7955,-5.02072 29.07801,-8.12109c9.18139,-1.86263 19.25742,-2.52102 26.19605,-2.41653c6.83587,0.10295 17.51635,0.38208 26.91704,2.63191c14.63705,3.50302 27.42498,9.50529 27.42498,9.50529"/><path d="M298.37944,119.41008c0,0 -0.57671,19.53835 -4.26099,39.97146c-2.21345,12.27576 -6.35701,25.06581 -9.90057,33.59886c-3.49109,8.40667 -9.09199,21.48322 -16.50126,32.00667c-11.53638,16.38524 -25.25495,29.25291 -25.25495,29.25291"/><path d="M239.03984,254.56734c0,0 -13.71857,-12.86766 -25.25495,-29.2529c-7.40928,-10.52346 -13.01018,-23.6 -16.50126,-32.00668c-3.54355,-8.53305 -7.68712,-21.3231 -9.90055,-33.59886c-3.68427,-20.43312 -4.26101,-39.97146 -4.26101,-39.97146" data-paper-data="{&quot;index&quot;:null}"/></g></g><text transform="translate(172.10861,310.38018) scale(0.8531,0.8531)" font-size="40" xml:space="preserve" fill="#ffffff" fill-rule="nonzero" stroke="none" stroke-width="1" stroke-linecap="butt" stroke-linejoin="miter" stroke-miterlimit="10" stroke-dasharray="" stroke-dashoffset="0" font-family="Marker" font-weight="normal" text-anchor="start" style="mix-blend-mode: normal"><tspan x="0" dy="0">Yasirator</tspan></text></g></g></svg>