<svg version="1.1" xmlns="http://www.w3.org/2000/svg" xmlns:xlink="http://www.w3.org/1999/xlink" width="100.62182" height="124.21746" viewBox="0,0,100.62182,124.21746"><g transform="translate(-228.18213,-117.87457)"><g data-paper-data="{&quot;isPaintingLayer&quot;:true}" fill-rule="nonzero" stroke="#000000" stroke-linecap="butt" stroke-linejoin="miter" stroke-miterlimit="10" stroke-dasharray="" stroke-dashoffset="0" style="mix-blend-mode: normal"><path d="M234.48195,237.31969c0,0 -10.40009,-66.24839 10.80763,-97.26863c16.39436,-23.97981 46.8841,-21.36632 62.59731,-10.14277c2.27578,1.62553 4.984,3.31689 6.58715,5.50875c0.77288,1.05669 1.61348,2.22591 2.12801,3.42141c0.58174,1.35165 0.83382,2.7369 1.71864,4.03112c14.49915,21.20772 1.06853,93.4246 1.06853,93.4246l-76.73426,1.90791z" fill="#b7b3b3" stroke-width="7.5"/><path d="M244.02923,238.26201c0,0 -9.95479,-63.41179 10.34487,-93.10382c20.29966,-29.69204 49.13133,-20.29966 63.00967,0c13.87833,20.29966 2.82133,91.22295 2.82133,91.22295z" fill="#b7b3b3" stroke-width="7.5"/><text transform="translate(254.06375,184.81665) scale(0.43544,0.43544)" font-size="40" xml:space="preserve" fill="#000000" fill-rule="nonzero" stroke="#000000" stroke-width="3" stroke-linecap="butt" stroke-linejoin="miter" stroke-miterlimit="10" stroke-dasharray="" stroke-dashoffset="0" font-family="Curly" font-weight="normal" text-anchor="start" style="mix-blend-mode: normal"><tspan x="0" dy="0">   R.İP.</tspan><tspan x="0" dy="46.150000000000006px">Kopernik</tspan></text></g></g></svg>