<svg version="1.1" xmlns="http://www.w3.org/2000/svg" xmlns:xlink="http://www.w3.org/1999/xlink" width="100.62182" height="124.21746" viewBox="0,0,100.62182,124.21746"><g transform="translate(-27.49144,-128.8956)"><g data-paper-data="{&quot;isPaintingLayer&quot;:true}" fill-rule="nonzero" stroke="#000000" stroke-linecap="butt" stroke-linejoin="miter" stroke-miterlimit="10" stroke-dasharray="" stroke-dashoffset="0" style="mix-blend-mode: normal"><g><path d="M33.79126,248.34071c0,0 -10.40009,-66.24838 10.80763,-97.26863c16.39436,-23.97981 46.8841,-21.36632 62.59731,-10.14277c2.27577,1.62553 4.98399,3.3169 6.58714,5.50875c0.77288,1.05669 1.61348,2.2259 2.12802,3.42141c0.58174,1.35165 0.83382,2.7369 1.71864,4.03113c14.49916,21.20772 1.06853,93.4246 1.06853,93.4246l-76.73426,1.90792z" fill="#b7b3b3" stroke-width="7.5"/><path d="M43.33854,249.28303c0,0 -9.95479,-63.41179 10.34487,-93.10383c20.29966,-29.69204 49.13132,-20.29966 63.00966,0c13.87834,20.29966 2.82133,91.22294 2.82133,91.22294z" fill="#b7b3b3" stroke-width="7.5"/><text transform="translate(53.37307,195.83767) scale(0.43544,0.43544)" font-size="40" xml:space="preserve" fill="#000000" fill-rule="nonzero" stroke="#000000" stroke-width="3" stroke-linecap="butt" stroke-linejoin="miter" stroke-miterlimit="10" stroke-dasharray="" stroke-dashoffset="0" font-family="Curly" font-weight="normal" text-anchor="start" style="mix-blend-mode: normal"><tspan x="0" dy="0">   R.İP.</tspan><tspan x="0" dy="46.150000000000006px">Brawl1111</tspan></text></g></g></g></svg>